<mxfile host="app.diagrams.net" modified="2024-03-29T20:38:17.665Z" agent="Mozilla/5.0 (Windows NT 10.0; Win64; x64) AppleWebKit/537.36 (KHTML, like Gecko) Chrome/122.0.0.0 Safari/537.36" etag="hXysciQ43gLCGG_KjXgV" version="24.2.1" type="device" pages="2">
  <diagram name="Architecture Overview" id="wW1aZAI7z-I3SE2-K2fp">
    <mxGraphModel dx="3174" dy="1146" grid="1" gridSize="10" guides="1" tooltips="1" connect="1" arrows="1" fold="1" page="1" pageScale="1" pageWidth="1100" pageHeight="850" math="0" shadow="0">
      <root>
        <mxCell id="0" />
        <mxCell id="1" parent="0" />
        <mxCell id="g_d19D-1HgDeYie1h09Q-1" value="" style="rounded=0;whiteSpace=wrap;html=1;flipV=1;flipH=0;fillColor=#f5f5f5;strokeColor=#666666;fontColor=#333333;" parent="1" vertex="1">
          <mxGeometry x="-865" y="200" width="660" height="450" as="geometry" />
        </mxCell>
        <mxCell id="g_d19D-1HgDeYie1h09Q-2" value="" style="rounded=1;whiteSpace=wrap;html=1;fontSize=16;fillColor=none;" parent="1" vertex="1">
          <mxGeometry x="-840" y="410" width="155" height="160" as="geometry" />
        </mxCell>
        <mxCell id="g_d19D-1HgDeYie1h09Q-3" value="" style="rounded=1;whiteSpace=wrap;html=1;fillColor=none;" parent="1" vertex="1">
          <mxGeometry x="-665" y="240" width="410" height="380" as="geometry" />
        </mxCell>
        <mxCell id="g_d19D-1HgDeYie1h09Q-4" value="Scheduling API" style="text;html=1;align=center;verticalAlign=middle;whiteSpace=wrap;rounded=0;fontSize=16;" parent="1" vertex="1">
          <mxGeometry x="-865" y="210" width="140" height="30" as="geometry" />
        </mxCell>
        <mxCell id="g_d19D-1HgDeYie1h09Q-5" value="Application" style="text;html=1;align=center;verticalAlign=middle;whiteSpace=wrap;rounded=0;fontSize=17;" parent="1" vertex="1">
          <mxGeometry x="-650" y="250" width="140" height="30" as="geometry" />
        </mxCell>
        <mxCell id="g_d19D-1HgDeYie1h09Q-6" value="" style="rounded=1;whiteSpace=wrap;html=1;fillColor=#d0cee2;strokeColor=#56517e;" parent="1" vertex="1">
          <mxGeometry x="-635" y="440" width="350" height="100" as="geometry" />
        </mxCell>
        <mxCell id="g_d19D-1HgDeYie1h09Q-7" value="" style="rounded=1;whiteSpace=wrap;html=1;fillColor=#fad7ac;strokeColor=#b46504;" parent="1" vertex="1">
          <mxGeometry x="-635" y="330" width="350" height="110" as="geometry" />
        </mxCell>
        <mxCell id="g_d19D-1HgDeYie1h09Q-25" style="edgeStyle=orthogonalEdgeStyle;rounded=0;orthogonalLoop=1;jettySize=auto;html=1;exitX=1;exitY=0.5;exitDx=0;exitDy=0;entryX=0;entryY=0.5;entryDx=0;entryDy=0;" parent="1" source="g_d19D-1HgDeYie1h09Q-9" target="g_d19D-1HgDeYie1h09Q-7" edge="1">
          <mxGeometry relative="1" as="geometry" />
        </mxCell>
        <mxCell id="g_d19D-1HgDeYie1h09Q-9" value="External Message Queue" style="rounded=1;whiteSpace=wrap;html=1;fontSize=15;" parent="1" vertex="1">
          <mxGeometry x="-1055" y="355" width="120" height="60" as="geometry" />
        </mxCell>
        <mxCell id="g_d19D-1HgDeYie1h09Q-11" value="Request Validation" style="rounded=1;whiteSpace=wrap;html=1;direction=west;rotation=0;fontSize=17;fillColor=#f8cecc;strokeColor=#b85450;" parent="1" vertex="1">
          <mxGeometry x="-821.25" y="455" width="117.5" height="50" as="geometry" />
        </mxCell>
        <mxCell id="g_d19D-1HgDeYie1h09Q-18" style="edgeStyle=orthogonalEdgeStyle;rounded=0;orthogonalLoop=1;jettySize=auto;html=1;exitX=1;exitY=0.5;exitDx=0;exitDy=0;entryX=0;entryY=0.5;entryDx=0;entryDy=0;" parent="1" source="g_d19D-1HgDeYie1h09Q-17" target="g_d19D-1HgDeYie1h09Q-2" edge="1">
          <mxGeometry relative="1" as="geometry" />
        </mxCell>
        <mxCell id="g_d19D-1HgDeYie1h09Q-17" value="Http Requests" style="rounded=1;whiteSpace=wrap;html=1;fontSize=15;" parent="1" vertex="1">
          <mxGeometry x="-1055" y="460" width="120" height="60" as="geometry" />
        </mxCell>
        <mxCell id="g_d19D-1HgDeYie1h09Q-21" value="Integration Handlers" style="text;html=1;align=center;verticalAlign=middle;whiteSpace=wrap;rounded=0;fontSize=16;" parent="1" vertex="1">
          <mxGeometry x="-650" y="340" width="140" height="40" as="geometry" />
        </mxCell>
        <mxCell id="g_d19D-1HgDeYie1h09Q-22" value="Handlers" style="text;html=1;align=center;verticalAlign=middle;whiteSpace=wrap;rounded=0;fontSize=17;" parent="1" vertex="1">
          <mxGeometry x="-650" y="510" width="140" height="30" as="geometry" />
        </mxCell>
        <mxCell id="g_d19D-1HgDeYie1h09Q-24" style="edgeStyle=orthogonalEdgeStyle;rounded=0;orthogonalLoop=1;jettySize=auto;html=1;exitX=1;exitY=0.5;exitDx=0;exitDy=0;entryX=0;entryY=0.5;entryDx=0;entryDy=0;" parent="1" source="g_d19D-1HgDeYie1h09Q-2" target="g_d19D-1HgDeYie1h09Q-6" edge="1">
          <mxGeometry relative="1" as="geometry" />
        </mxCell>
        <mxCell id="g_d19D-1HgDeYie1h09Q-26" value="Mapping From/To Domain Models" style="rounded=1;whiteSpace=wrap;html=1;direction=west;rotation=-90;fontSize=16;fillColor=#fff2cc;strokeColor=#d6b656;" parent="1" vertex="1">
          <mxGeometry x="-635" y="408.12" width="117.5" height="63.75" as="geometry" />
        </mxCell>
        <mxCell id="g_d19D-1HgDeYie1h09Q-27" value="Domain Logic" style="rounded=1;whiteSpace=wrap;html=1;fontSize=17;fillColor=#dae8fc;strokeColor=#6c8ebf;" parent="1" vertex="1">
          <mxGeometry x="-550" y="382.5" width="185" height="120" as="geometry" />
        </mxCell>
        <mxCell id="g_d19D-1HgDeYie1h09Q-28" value="Repository" style="rounded=1;whiteSpace=wrap;html=1;direction=west;rotation=-90;fontSize=18;fillColor=#d5e8d4;strokeColor=#82b366;" parent="1" vertex="1">
          <mxGeometry x="-405" y="422.5" width="117.5" height="40" as="geometry" />
        </mxCell>
        <mxCell id="g_d19D-1HgDeYie1h09Q-29" value="Scheduling Database" style="shape=cylinder3;whiteSpace=wrap;html=1;boundedLbl=1;backgroundOutline=1;size=15;fontSize=16;fillColor=#ebebeb;" parent="1" vertex="1">
          <mxGeometry x="-155" y="330" width="110" height="110" as="geometry" />
        </mxCell>
        <mxCell id="g_d19D-1HgDeYie1h09Q-32" value="Domain Events" style="html=1;outlineConnect=0;whiteSpace=wrap;fillColor=#EBEBEB;shape=mxgraph.archimate3.application;appType=event;archiType=rounded;fontSize=16;" parent="1" vertex="1">
          <mxGeometry x="-152.5" y="480" width="105" height="60" as="geometry" />
        </mxCell>
        <mxCell id="g_d19D-1HgDeYie1h09Q-34" style="edgeStyle=orthogonalEdgeStyle;rounded=0;orthogonalLoop=1;jettySize=auto;html=1;exitX=0.25;exitY=0;exitDx=0;exitDy=0;entryX=0;entryY=0.5;entryDx=0;entryDy=0;entryPerimeter=0;" parent="1" source="g_d19D-1HgDeYie1h09Q-28" target="g_d19D-1HgDeYie1h09Q-29" edge="1">
          <mxGeometry relative="1" as="geometry">
            <Array as="points">
              <mxPoint x="-235" y="413" />
              <mxPoint x="-235" y="385" />
            </Array>
          </mxGeometry>
        </mxCell>
        <mxCell id="g_d19D-1HgDeYie1h09Q-35" style="edgeStyle=orthogonalEdgeStyle;rounded=0;orthogonalLoop=1;jettySize=auto;html=1;exitX=0.75;exitY=0;exitDx=0;exitDy=0;entryX=0;entryY=0.5;entryDx=0;entryDy=0;entryPerimeter=0;" parent="1" source="g_d19D-1HgDeYie1h09Q-28" target="g_d19D-1HgDeYie1h09Q-32" edge="1">
          <mxGeometry relative="1" as="geometry">
            <Array as="points">
              <mxPoint x="-235" y="472" />
              <mxPoint x="-235" y="510" />
            </Array>
          </mxGeometry>
        </mxCell>
        <mxCell id="H3A9Cg3HC8B9cT3PzNvt-1" value="Controllers" style="text;html=1;align=center;verticalAlign=middle;whiteSpace=wrap;rounded=0;fontSize=16;" vertex="1" parent="1">
          <mxGeometry x="-832.5" y="425" width="140" height="30" as="geometry" />
        </mxCell>
        <mxCell id="H3A9Cg3HC8B9cT3PzNvt-2" value="Publishing Commands" style="rounded=1;whiteSpace=wrap;html=1;direction=west;rotation=0;fontSize=17;fillColor=#dae8fc;strokeColor=#6c8ebf;" vertex="1" parent="1">
          <mxGeometry x="-821.25" y="505" width="117.5" height="50" as="geometry" />
        </mxCell>
      </root>
    </mxGraphModel>
  </diagram>
  <diagram id="me5OuZySiNj_0wUDSG5A" name="Domain Model">
    <mxGraphModel dx="1430" dy="757" grid="1" gridSize="10" guides="1" tooltips="1" connect="1" arrows="1" fold="1" page="1" pageScale="1" pageWidth="1100" pageHeight="850" math="0" shadow="0">
      <root>
        <mxCell id="0" />
        <mxCell id="1" parent="0" />
        <mxCell id="42Cg9YBqKtRdrPPhXIpy-1" style="edgeStyle=orthogonalEdgeStyle;rounded=0;orthogonalLoop=1;jettySize=auto;html=1;exitX=0;exitY=0.5;exitDx=0;exitDy=0;entryX=0.5;entryY=0;entryDx=0;entryDy=0;" edge="1" parent="1" source="42Cg9YBqKtRdrPPhXIpy-5" target="42Cg9YBqKtRdrPPhXIpy-12">
          <mxGeometry relative="1" as="geometry" />
        </mxCell>
        <mxCell id="42Cg9YBqKtRdrPPhXIpy-2" style="edgeStyle=orthogonalEdgeStyle;rounded=0;orthogonalLoop=1;jettySize=auto;html=1;exitX=0.5;exitY=1;exitDx=0;exitDy=0;entryX=0;entryY=0.5;entryDx=0;entryDy=0;" edge="1" parent="1" source="42Cg9YBqKtRdrPPhXIpy-5" target="42Cg9YBqKtRdrPPhXIpy-8">
          <mxGeometry relative="1" as="geometry" />
        </mxCell>
        <mxCell id="42Cg9YBqKtRdrPPhXIpy-3" style="edgeStyle=orthogonalEdgeStyle;rounded=0;orthogonalLoop=1;jettySize=auto;html=1;exitX=0.5;exitY=1;exitDx=0;exitDy=0;entryX=0;entryY=0.5;entryDx=0;entryDy=0;" edge="1" parent="1" source="42Cg9YBqKtRdrPPhXIpy-5" target="42Cg9YBqKtRdrPPhXIpy-11">
          <mxGeometry relative="1" as="geometry" />
        </mxCell>
        <mxCell id="42Cg9YBqKtRdrPPhXIpy-5" value="Schedule&lt;div&gt;(Aggregate Root)&lt;/div&gt;" style="rounded=1;whiteSpace=wrap;html=1;fillColor=#f8cecc;strokeColor=#b85450;" vertex="1" parent="1">
          <mxGeometry x="328" y="65" width="120" height="60" as="geometry" />
        </mxCell>
        <mxCell id="42Cg9YBqKtRdrPPhXIpy-6" style="edgeStyle=orthogonalEdgeStyle;rounded=0;orthogonalLoop=1;jettySize=auto;html=1;exitX=0.5;exitY=1;exitDx=0;exitDy=0;entryX=0;entryY=0.5;entryDx=0;entryDy=0;" edge="1" parent="1" source="42Cg9YBqKtRdrPPhXIpy-8" target="42Cg9YBqKtRdrPPhXIpy-17">
          <mxGeometry relative="1" as="geometry" />
        </mxCell>
        <mxCell id="42Cg9YBqKtRdrPPhXIpy-7" style="edgeStyle=orthogonalEdgeStyle;rounded=0;orthogonalLoop=1;jettySize=auto;html=1;exitX=0.5;exitY=1;exitDx=0;exitDy=0;entryX=0;entryY=0.5;entryDx=0;entryDy=0;" edge="1" parent="1" source="42Cg9YBqKtRdrPPhXIpy-8" target="42Cg9YBqKtRdrPPhXIpy-19">
          <mxGeometry relative="1" as="geometry" />
        </mxCell>
        <mxCell id="G6SkActMv1S4RDwCukqY-2" style="edgeStyle=orthogonalEdgeStyle;rounded=0;orthogonalLoop=1;jettySize=auto;html=1;exitX=1;exitY=0.5;exitDx=0;exitDy=0;entryX=0;entryY=0.5;entryDx=0;entryDy=0;" edge="1" parent="1" source="42Cg9YBqKtRdrPPhXIpy-8" target="G6SkActMv1S4RDwCukqY-1">
          <mxGeometry relative="1" as="geometry" />
        </mxCell>
        <mxCell id="42Cg9YBqKtRdrPPhXIpy-8" value="Availablity" style="rounded=1;whiteSpace=wrap;html=1;fillColor=#ffe6cc;strokeColor=#d79b00;" vertex="1" parent="1">
          <mxGeometry x="428" y="202.5" width="120" height="60" as="geometry" />
        </mxCell>
        <mxCell id="42Cg9YBqKtRdrPPhXIpy-9" style="edgeStyle=orthogonalEdgeStyle;rounded=0;orthogonalLoop=1;jettySize=auto;html=1;exitX=0.5;exitY=1;exitDx=0;exitDy=0;dashed=1;dashPattern=8 8;" edge="1" parent="1" source="42Cg9YBqKtRdrPPhXIpy-11">
          <mxGeometry relative="1" as="geometry">
            <mxPoint x="540" y="745" as="targetPoint" />
            <Array as="points">
              <mxPoint x="488" y="745" />
            </Array>
          </mxGeometry>
        </mxCell>
        <mxCell id="42Cg9YBqKtRdrPPhXIpy-10" style="edgeStyle=orthogonalEdgeStyle;rounded=0;orthogonalLoop=1;jettySize=auto;html=1;exitX=0.5;exitY=1;exitDx=0;exitDy=0;dashed=1;dashPattern=8 8;" edge="1" parent="1" source="42Cg9YBqKtRdrPPhXIpy-11">
          <mxGeometry relative="1" as="geometry">
            <mxPoint x="540" y="785" as="targetPoint" />
            <Array as="points">
              <mxPoint x="488" y="785" />
              <mxPoint x="540" y="785" />
            </Array>
          </mxGeometry>
        </mxCell>
        <mxCell id="G6SkActMv1S4RDwCukqY-5" style="edgeStyle=orthogonalEdgeStyle;rounded=0;orthogonalLoop=1;jettySize=auto;html=1;exitX=1;exitY=0.5;exitDx=0;exitDy=0;entryX=0;entryY=0.5;entryDx=0;entryDy=0;dashed=1;dashPattern=8 8;" edge="1" parent="1" source="42Cg9YBqKtRdrPPhXIpy-11">
          <mxGeometry relative="1" as="geometry">
            <mxPoint x="638" y="665" as="targetPoint" />
          </mxGeometry>
        </mxCell>
        <mxCell id="42Cg9YBqKtRdrPPhXIpy-11" value="Availablity" style="rounded=1;whiteSpace=wrap;html=1;fillColor=#ffe6cc;strokeColor=#d79b00;" vertex="1" parent="1">
          <mxGeometry x="428" y="635" width="120" height="60" as="geometry" />
        </mxCell>
        <mxCell id="42Cg9YBqKtRdrPPhXIpy-12" value="Psychologist&lt;div&gt;(Sync Aggregate)&lt;br&gt;&lt;/div&gt;" style="rounded=1;whiteSpace=wrap;html=1;fillColor=#d5e8d4;strokeColor=#82b366;" vertex="1" parent="1">
          <mxGeometry x="168" y="145" width="120" height="60" as="geometry" />
        </mxCell>
        <mxCell id="42Cg9YBqKtRdrPPhXIpy-16" style="edgeStyle=orthogonalEdgeStyle;rounded=0;orthogonalLoop=1;jettySize=auto;html=1;exitX=1;exitY=0.5;exitDx=0;exitDy=0;entryX=0;entryY=0.5;entryDx=0;entryDy=0;" edge="1" parent="1" source="42Cg9YBqKtRdrPPhXIpy-17" target="42Cg9YBqKtRdrPPhXIpy-27">
          <mxGeometry relative="1" as="geometry" />
        </mxCell>
        <mxCell id="G6SkActMv1S4RDwCukqY-9" style="edgeStyle=orthogonalEdgeStyle;rounded=0;orthogonalLoop=1;jettySize=auto;html=1;exitX=1;exitY=0.5;exitDx=0;exitDy=0;entryX=0;entryY=0.5;entryDx=0;entryDy=0;" edge="1" parent="1" source="42Cg9YBqKtRdrPPhXIpy-17" target="G6SkActMv1S4RDwCukqY-6">
          <mxGeometry relative="1" as="geometry" />
        </mxCell>
        <mxCell id="42Cg9YBqKtRdrPPhXIpy-17" value="Appointment" style="rounded=1;whiteSpace=wrap;html=1;fillColor=#fff2cc;strokeColor=#d6b656;" vertex="1" parent="1">
          <mxGeometry x="638" y="335" width="120" height="60" as="geometry" />
        </mxCell>
        <mxCell id="42Cg9YBqKtRdrPPhXIpy-18" style="edgeStyle=orthogonalEdgeStyle;rounded=0;orthogonalLoop=1;jettySize=auto;html=1;exitX=1;exitY=0.5;exitDx=0;exitDy=0;entryX=0;entryY=0.5;entryDx=0;entryDy=0;" edge="1" parent="1" source="42Cg9YBqKtRdrPPhXIpy-19" target="42Cg9YBqKtRdrPPhXIpy-28">
          <mxGeometry relative="1" as="geometry" />
        </mxCell>
        <mxCell id="G6SkActMv1S4RDwCukqY-8" style="edgeStyle=orthogonalEdgeStyle;rounded=0;orthogonalLoop=1;jettySize=auto;html=1;exitX=1;exitY=0.5;exitDx=0;exitDy=0;entryX=0;entryY=0.5;entryDx=0;entryDy=0;" edge="1" parent="1" source="42Cg9YBqKtRdrPPhXIpy-19" target="G6SkActMv1S4RDwCukqY-7">
          <mxGeometry relative="1" as="geometry" />
        </mxCell>
        <mxCell id="42Cg9YBqKtRdrPPhXIpy-19" value="Appointment" style="rounded=1;whiteSpace=wrap;html=1;fillColor=#fff2cc;strokeColor=#d6b656;" vertex="1" parent="1">
          <mxGeometry x="638" y="505" width="120" height="60" as="geometry" />
        </mxCell>
        <mxCell id="42Cg9YBqKtRdrPPhXIpy-27" value="Client&lt;div&gt;(Sync Aggregate)&lt;/div&gt;" style="rounded=1;whiteSpace=wrap;html=1;fillColor=#d5e8d4;strokeColor=#82b366;" vertex="1" parent="1">
          <mxGeometry x="813" y="415" width="120" height="60" as="geometry" />
        </mxCell>
        <mxCell id="42Cg9YBqKtRdrPPhXIpy-28" value="Client" style="rounded=1;whiteSpace=wrap;html=1;fillColor=#d5e8d4;strokeColor=#82b366;" vertex="1" parent="1">
          <mxGeometry x="813" y="585" width="120" height="60" as="geometry" />
        </mxCell>
        <mxCell id="G6SkActMv1S4RDwCukqY-1" value="AvailabilityTimeSlot&lt;div&gt;(ValueObject)&lt;/div&gt;" style="rounded=1;whiteSpace=wrap;html=1;fillColor=#dae8fc;strokeColor=#6c8ebf;" vertex="1" parent="1">
          <mxGeometry x="638" y="202.5" width="120" height="60" as="geometry" />
        </mxCell>
        <mxCell id="G6SkActMv1S4RDwCukqY-6" value="TimeSlot&lt;div&gt;(ValueObject)&lt;/div&gt;" style="rounded=1;whiteSpace=wrap;html=1;fillColor=#dae8fc;strokeColor=#6c8ebf;" vertex="1" parent="1">
          <mxGeometry x="813" y="335" width="120" height="60" as="geometry" />
        </mxCell>
        <mxCell id="G6SkActMv1S4RDwCukqY-7" value="TimeSlot" style="rounded=1;whiteSpace=wrap;html=1;fillColor=#dae8fc;strokeColor=#6c8ebf;" vertex="1" parent="1">
          <mxGeometry x="813" y="505" width="120" height="60" as="geometry" />
        </mxCell>
      </root>
    </mxGraphModel>
  </diagram>
</mxfile>
